/* XPM */
static char * dracula_logo_xpm[] = {
"14 10 8 1",
" 	c None",
".	c #F8F8F3",
"+	c #F8F8F2",
"@	c #6272A4",
"#	c #F7F7F1",
"$	c #6272A3",
"%	c #6171A4",
"&	c #F8F8F1",
"              ",
" .+ @@        ",
"  ++ @@       ",
"  #++$@% ++++ ",
"   .+ @@ .+++ ",
"   .+ @@@ &++ ",
"  #++$@@@@ ++ ",
"  ++ @@ @@    ",
" .+ @@   @@   ",
" +  $     $   "};
