/* XPM */
static char * logo_0001_xpm[] = {
"20 14 12 1",
" 	c None",
".	c #B58900",
"+	c #B48B00",
"@	c #D33682",
"#	c #D33582",
"$	c #B68900",
"%	c #B58800",
"&	c #D43184",
"*	c #D52686",
"=	c #D43183",
"-	c #D33781",
";	c #D43683",
"                    ",
" ...+ @@@           ",
"  ... #@@           ",
"  $... @@@          ",
"    ..  @@@ %%%%%%% ",
"    ... &@@*$...... ",
"     ... @@@        ",
"     ... @@@@       ",
"    ... &@@@@= .... ",
"    ..  @@@@@@ .%%% ",
"  $... @@@  @@-     ",
"  ... #@@   ;@@@    ",
" ...+ @@@    @@@    ",
"                    "};
