/* XPM */
static char * logo_0003_xpm[] = {
"19 14 15 1",
" 	c None",
".	c #CB4B16",
"+	c #CC4A17",
"@	c #DD3130",
"#	c #DC322F",
"$	c #DB322F",
"%	c #DC332F",
"&	c #DD3030",
"*	c #D73C29",
"=	c #CB4B17",
"-	c #DC3130",
";	c #CA4C14",
">	c #DC322E",
",	c #DB342D",
"'	c #DC3230",
"...+ @#$           ",
" ... #%#           ",
"  ..+ &##          ",
"  ....*%##         ",
"   ..= -%##  ......",
"    ..; -##  +.....",
"    ...  ###       ",
"    ...  ####      ",
"    ..; -####  ....",
"   ..= -%####> ....",
"  ....*%#####%,    ",
"  ..+ &##   ###    ",
" ... #%#     ###   ",
"...+ @#$     '##   "};
