/* XPM */
static char * nord_logo_xpm[] = {
"14 10 12 1",
" 	c None",
".	c #E5E9F0",
"+	c #88C0D0",
"@	c #E3E8EF",
"#	c #8BC1D1",
"$	c #9DC7D6",
"%	c #D8DEE9",
"&	c #CFDBE6",
"*	c #D8DFE9",
"=	c #B3CFDC",
"-	c #E2E8EF",
";	c #88C1D0",
"... ++        ",
" ..@#++       ",
"  .. ++       ",
"  ...$++ %%%%%",
"   .. +++&****",
"   .. +++  ***",
"  ...$++++=%%%",
"  .. ++ +++   ",
" ..-#++  ++;  ",
"... ++    ++  "};
