/* XPM */
static char * logo_0002_xpm[] = {
"14 10 16 1",
" 	c None",
".	c #839497",
"+	c #839496",
"@	c #586E75",
"#	c #516870",
"$	c #798B8E",
"%	c #566C73",
"&	c #859597",
"*	c #546A72",
"=	c #576E75",
"-	c #526971",
";	c #809193",
">	c #788A8D",
",	c #566D73",
"'	c #526871",
")	c #596E75",
".+  @@        ",
" ++ #@@       ",
"  ++$%@@      ",
"  ++&*@= +++++",
"   ++ =@-;++++",
"   ++ =@@  +++",
"  ++&*@@@@ +++",
"  ++>,@@@@@   ",
" ++ '@@  @@   ",
".+  @@   )@@  "};
